<svg height="511pt" viewBox="-38 1 511 511.99942" width="511pt" xmlns="http://www.w3.org/2000/svg"><path d="m41.800781 153.601562h122.199219c22.796875-.023437 41.277344-18.503906 41.300781-41.300781v-71c-.023437-22.800781-18.5-41.2773435-41.300781-41.300781h-122.199219c-22.800781.0234375-41.277343 18.5-41.300781 41.300781v70.996094c.023438 22.800781 18.5 41.28125 41.300781 41.304687zm-24.234375-112.300781c.015625-13.378906 10.855469-24.21875 24.234375-24.234375h122.199219c13.375.015625 24.21875 10.855469 24.234375 24.234375v70.996094c-.015625 13.378906-10.859375 24.222656-24.234375 24.234375h-122.199219c-13.378906-.011719-24.222656-10.855469-24.234375-24.234375zm0 0"/><path d="m119.964844 119.46875h34.136718c4.710938 0 8.53125-3.820312 8.53125-8.535156v-68.265625c0-4.714844-3.820312-8.535157-8.53125-8.535157h-34.136718c-4.710938 0-8.53125 3.820313-8.53125 8.535157v68.265625c0 4.710937 3.820312 8.535156 8.53125 8.535156zm8.535156-68.269531h17.066406v51.199219h-17.066406zm0 0"/><path d="m51.699219 119.46875h34.132812c4.714844 0 8.535157-3.820312 8.535157-8.535156v-68.265625c0-4.714844-3.820313-8.535157-8.535157-8.535157h-34.132812c-4.710938 0-8.53125 3.820313-8.53125 8.535157v68.265625c0 4.710937 3.820312 8.535156 8.53125 8.535156zm8.535156-68.269531h17.066406v51.199219h-17.066406zm0 0"/><path d="m427.167969 145.066406h-25.601563v-76.800781c0-4.710937-3.820312-8.53125-8.53125-8.53125h-34.136718c-4.710938 0-8.53125 3.820313-8.53125 8.53125v76.800781h-34.132813v-76.800781c0-4.710937-3.820313-8.53125-8.535156-8.53125h-34.132813c-4.710937 0-8.53125 3.820313-8.53125 8.53125v76.800781h-25.601562c-4.710938 0-8.53125 3.820313-8.53125 8.535156v51.199219c0 4.710938 3.820312 8.53125 8.53125 8.53125h8.535156v33.527344c-.070312 39.617187 15.222656 77.714844 42.664062 106.285156v47.921875c0 4.714844 3.820313 8.535156 8.535157 8.535156h8.53125v93.863282c0 4.714844 3.820312 8.535156 8.535156 8.535156h34.132813c4.714843 0 8.53125-3.820312 8.53125-8.535156v-93.863282h8.535156c4.714844 0 8.535156-3.820312 8.535156-8.535156v-47.921875c27.4375-28.574219 42.734375-66.667969 42.664062-106.285156v-33.527344h8.535157c4.710937 0 8.53125-3.820312 8.53125-8.53125v-51.199219c0-4.714843-3.820313-8.535156-8.53125-8.535156zm-59.734375-68.265625h17.066406v68.265625h-17.066406zm-85.332032 0h17.066407v68.265625h-17.066407zm59.730469 418.132813h-17.066406v-85.332032h17.066406zm17.066407-102.402344h-51.199219v-34.132812h51.199219zm42.667968-145.671875c.097656 35.183594-13.421875 69.039063-37.726562 94.472656h-61.082032c-24.304687-25.433593-37.824218-59.289062-37.722656-94.472656v-33.527344h136.53125zm17.066406-50.59375h-170.667968v-34.132813h170.667968zm0 0"/><path d="m213.832031 315.734375h-98.507812l38.210937-99.335937c1.695313-4.398438-.496094-9.339844-4.894531-11.03125-3.332031-1.285157-7.113281-.359376-9.472656 2.324218l-128 145.066406c-3.117188 3.539063-2.777344 8.929688.761719 12.046876 1.554687 1.371093 3.558593 2.128906 5.636718 2.128906h98.824219l-38.597656 108.066406c-1.589844 4.4375.71875 9.320312 5.15625 10.910156 3.375 1.210938 7.144531.179688 9.4375-2.574218l128-153.597657c3.019531-3.617187 2.535156-9-1.078125-12.019531-1.539063-1.285156-3.476563-1.984375-5.476563-1.984375zm-103.816406 119.773437 26.523437-74.242187c1.582032-4.4375-.734374-9.320313-5.171874-10.902344-.917969-.328125-1.890626-.496093-2.867188-.496093h-92.023438l84.085938-95.300782-25.597656 66.636719c-1.691406 4.398437.5 9.335937 4.898437 11.027344.96875.375 2 .566406 3.035157.570312h92.714843zm0 0"/></svg>