<svg height="512pt" viewBox="-63 0 512 512" width="512pt" xmlns="http://www.w3.org/2000/svg"><path d="m0 0v512h385.898438v-512zm355.875 481.972656h-325.847656v-451.945312h325.847656zm0 0"/><path d="m323.402344 62.722656h-260.902344v159.082032h260.902344zm-30.027344 129.054688h-92.695312l-55.226563-77.390625-24.441406 17.445312 42.78125 59.945313h-71.265625v-99.027344h200.847656zm0 0"/><path d="m123.820312 344.304688c-26.808593 0-48.621093 21.8125-48.621093 48.625 0 26.808593 21.8125 48.621093 48.621093 48.621093 26.8125 0 48.625-21.8125 48.625-48.621093 0-26.8125-21.8125-48.625-48.625-48.625zm0 67.222656c-10.253906 0-18.59375-8.34375-18.59375-18.597656 0-10.253907 8.339844-18.597657 18.59375-18.597657 10.253907 0 18.597657 8.34375 18.597657 18.597657 0 10.253906-8.34375 18.597656-18.597657 18.597656zm0 0"/><path d="m262.078125 344.304688c-26.8125 0-48.625 21.8125-48.625 48.625 0 26.808593 21.8125 48.621093 48.625 48.621093s48.625-21.8125 48.625-48.621093c0-26.8125-21.8125-48.625-48.625-48.625zm0 67.222656c-10.253906 0-18.597656-8.34375-18.597656-18.597656 0-10.253907 8.34375-18.597657 18.597656-18.597657s18.597656 8.34375 18.597656 18.597657c0 10.253906-8.34375 18.597656-18.597656 18.597656zm0 0"/><path d="m223.875 264.234375h76.40625v30.027344h-76.40625zm0 0"/><path d="m108.808594 241.046875v23.1875h-23.1875v30.027344h23.1875v23.1875h30.027344v-23.1875h23.1875v-30.027344h-23.1875v-23.1875zm0 0"/></svg>