<svg height="512pt" viewBox="-65 0 512 512" width="512pt" xmlns="http://www.w3.org/2000/svg"><path d="m170.828125 399.910156c1.464844.875 3.089844 1.304688 4.707031 1.304688 2.371094 0 4.714844-.917969 6.484375-2.6875l50.789063-50.71875c2.015625-2.015625 2.972656-4.792969 2.621094-7.621094-.351563-2.828125-1.953126-5.285156-4.402344-6.75l-26.300782-15.699219 10.53125-35.140625c1.207032-4.03125-.472656-8.351562-4.085937-10.507812-3.609375-2.160156-8.214844-1.589844-11.191406 1.382812l-50.789063 50.71875c-2.015625 2.015625-2.972656 4.789063-2.621094 7.617188.347657 2.828125 1.953126 5.289062 4.402344 6.753906l26.300782 15.699219-10.53125 35.140625c-1.207032 4.03125.472656 8.351562 4.085937 10.507812zm-5.742187-70.390625 29.183593-29.144531-5.21875 17.40625c-1.207031 4.03125.472657 8.355469 4.085938 10.511719l23.773437 14.191406-29.179687 29.144531 5.214843-17.410156c1.207032-4.03125-.472656-8.355469-4.085937-10.507812zm0 0"/><path d="m7.5 91.332031c4.140625 0 7.5-3.355469 7.5-7.5v-20.332031c0-4.140625-3.359375-7.5-7.5-7.5s-7.5 3.359375-7.5 7.5v20.332031c0 4.144531 3.359375 7.5 7.5 7.5zm0 0"/><path d="m374.5 0h-367c-4.140625 0-7.5 3.359375-7.5 7.5v23.5c0 4.140625 3.359375 7.5 7.5 7.5s7.5-3.359375 7.5-7.5v-16h352v262.5h-37.5c-4.140625 0-7.5 3.359375-7.5 7.5s3.359375 7.5 7.5 7.5h37.5v13.5h-37.5c-4.140625 0-7.5 3.359375-7.5 7.5s3.359375 7.5 7.5 7.5h37.5v13.5h-37.5c-4.140625 0-7.5 3.359375-7.5 7.5s3.359375 7.5 7.5 7.5h37.5v13.5h-37.5c-4.140625 0-7.5 3.359375-7.5 7.5s3.359375 7.5 7.5 7.5h37.5v43h-48.5c-4.140625 0-7.5 3.359375-7.5 7.5s3.359375 7.5 7.5 7.5h48.5v30h-352v-30h271.75c4.140625 0 7.5-3.359375 7.5-7.5s-3.359375-7.5-7.5-7.5h-271.75v-43h37.5c4.140625 0 7.5-3.359375 7.5-7.5s-3.359375-7.5-7.5-7.5h-37.5v-13.5h37.5c4.140625 0 7.5-3.359375 7.5-7.5s-3.359375-7.5-7.5-7.5h-37.5v-13.5h37.5c4.140625 0 7.5-3.359375 7.5-7.5s-3.359375-7.5-7.5-7.5h-37.5v-13.5h37.5c4.140625 0 7.5-3.359375 7.5-7.5s-3.359375-7.5-7.5-7.5h-37.5v-161.667969c0-4.140625-3.359375-7.5-7.5-7.5s-7.5 3.359375-7.5 7.5v357.667969c0 4.140625 3.359375 7.5 7.5 7.5h23.75v23.5c0 4.140625 3.359375 7.5 7.5 7.5h59c4.140625 0 7.5-3.359375 7.5-7.5v-23.5h171.5v23.5c0 4.140625 3.359375 7.5 7.5 7.5h59c4.140625 0 7.5-3.359375 7.5-7.5v-23.5h23.75c4.140625 0 7.5-3.359375 7.5-7.5v-466c0-4.140625-3.359375-7.5-7.5-7.5zm-284.25 497h-44v-16h44zm245.5 0h-44v-16h44zm0 0"/><path d="m297.5 59.5c0-8.546875-6.953125-15.5-15.5-15.5h-182c-8.546875 0-15.5 6.953125-15.5 15.5v102c0 8.546875 6.953125 15.5 15.5 15.5h182c8.546875 0 15.5-6.953125 15.5-15.5zm-15 102c0 .277344-.222656.5-.5.5h-182c-.277344 0-.5-.222656-.5-.5v-102c0-.277344.222656-.5.5-.5h182c.277344 0 .5.222656.5.5zm0 0"/><path d="m84.5 236c0 8.546875 6.953125 15.5 15.5 15.5h62c8.546875 0 15.5-6.953125 15.5-15.5v-25c0-8.546875-6.953125-15.5-15.5-15.5h-62c-8.546875 0-15.5 6.953125-15.5 15.5zm15-25c0-.277344.222656-.5.5-.5h62c.277344 0 .5.222656.5.5v25c0 .277344-.222656.5-.5.5h-62c-.277344 0-.5-.222656-.5-.5zm0 0"/><path d="m297.5 236v-25c0-8.546875-6.953125-15.5-15.5-15.5h-62c-8.546875 0-15.5 6.953125-15.5 15.5v25c0 8.546875 6.953125 15.5 15.5 15.5h62c8.546875 0 15.5-6.953125 15.5-15.5zm-78 0v-25c0-.277344.222656-.5.5-.5h62c.277344 0 .5.222656.5.5v25c0 .277344-.222656.5-.5.5h-62c-.277344 0-.5-.222656-.5-.5zm0 0"/></svg>